<svg xmlns="http://www.w3.org/2000/svg" x="0px" y="0px" width="98px" height="40px" viewBox="0 0 430 160" overflow="visible"><g fill-rule="evenodd" clip-rule="evenodd" fill="#ffffff"><path d="M237.757 13.846h130.884v2.09H237.757v-2.09zM246.639 26.647h82.553v2.09h-82.553v-2.09zM234.36 39.97h72.888v2.091H234.36V39.97zM170.938 23.002h-18.091c-.976 3.857-2.126 7.65-3.096 11.501h9.015c1.379 0 2.443.605 2.997 1.233.503.57.895 1.285.864 2.324-.031 1.055-.317 2.32-1.093 3.102-.724.729-1.368.917-2.725.917h-2.327c-2.489 0-6.237-.014-8.725-.014-.623 2.403-.722 2.823-1.333 5.221-.613 2.408-1.24 4.808-1.874 7.21-.48 1.82-.85 3.378-1.561 4.001-1.003.881-1.774 1.122-3.217.942-1.302-.162-1.59-.486-2.264-1.362-.659-.856-1.108-2.231-.653-4.033.707-2.804 1.656-5.613 2.356-8.417.701-2.804 1.405-5.61 2.104-8.421.697-2.801 1.449-5.612 2.132-8.416.682-2.803 1.368-5.617 2.055-8.425.312-1.277.616-2.677 1.204-3.48.591-.807.661-.802 1.592-1.169.929-.366 2.573-.386 3.873-.386h17.407c1.463 0 3.588-.012 4.526.939.589.597 1.229 1.376 1.246 2.433.017 1.069-.181 2.727-1.168 3.458-.862.642-1.771.842-3.244.842zM120.155 48.556c.065.719-.018 1.907-.646 3.123-.811 1.568-.945 2.066-2.258 3.558-1.324 1.505-3.224 2.791-5.105 3.531-1.509.593-4.777.771-6.83.771-1.544 0-4.349-.14-5.667-.503-2.109-.582-4.895-2.291-6.368-5.211-.645-1.278-1.087-2.845-1.156-4.603-.067-1.699.367-3.919.75-5.719.389-1.836 1.413-5.563 1.876-7.654.387-1.741 1.119-4.91 1.891-7.908.788-3.062 1.439-5.291 3.091-7.268 1.661-1.987 2.488-2.661 4.466-3.693 1.985-1.035 5.429-1.557 7.5-1.557 2.514 0 6.411.271 8.243 1.29 2.036 1.131 3.866 2.951 4.692 4.929.817 1.957 1.228 3.964.893 5.82-.182 1.007-1.084 1.865-2.036 2.311-.783.368-2.572.279-3.215-.15-.723-.482-1.113-.689-1.414-1.214-.31-.542-.582-.963-.644-2.284-.071-1.526-.79-1.955-1.39-2.422-1.181-.919-3.071-.614-4.859-.614-2.57 0-4.688-.027-6.645 2.734-.979 1.382-1.215 3.031-2.014 6.474-1.125 4.845-2.408 9.63-3.522 14.54-.569 2.505-.609 3.134.405 4.247 1.009 1.108 2.729 1.046 4.33 1.046 1.723 0 4.605-.06 6.072-1.197 1.133-.878 1.845-1.651 2.424-3.2.383-1.025.651-1.43 1.267-1.921.656-.524 1.263-.707 2.11-.707.734 0 1.964.316 2.478.844.509.526 1.17 1.393 1.281 2.607zM194.199 42.18h-2.694c-1.101 4.17-2.297 8.545-3.466 12.785-.495 1.794-.866 2.827-1.71 3.708-.835.872-1.815 1.077-2.935.955-1.163-.126-2.027-.698-2.577-1.619-.525-.882-.871-1.894-.554-3.19 2.779-11.373 6.396-23.269 9.08-33.996.471-1.885 1.016-3.296 1.958-4.148.951-.861 2.287-1.286 4.015-1.286 2.166 0 1.592.067 3.762.067h6.527c1.789 0 3.076.204 4.31.503 1.223.297 2.829 1.23 3.582 1.922 1.096 1.006 1.747 2.072 2.431 3.145.685 1.076 1.085 2.324 1.217 3.748.132 1.416.085 2.93-.293 4.526-.804 3.388-1.937 6.326-3.808 8.486-1.863 2.151-4.683 3.401-8.104 4.215.624 1.775.975 2.743 1.512 4.512.988 3.258 1.162 3.566 2.442 8.037.45 1.57.444 2.37-.323 3.601-.383.614-.908.893-1.524 1.224-.609.327-1.361.389-2.059.389-.813 0-1.474-.23-1.94-.699-.464-.466-.815-1.061-1.065-1.776-.248-.708-.363-.9-.761-2.293-1.359-4.758-2.567-8.482-4.052-12.81-.957.012-1.624-.006-2.971-.006zm9.226-19.111c-2.909 0-3.763-.028-6.658-.028-.486 2.065-.862 3.265-1.418 5.302-.555 2.032-1.167 4.148-1.807 6.236h5.429c2.228 0 4.54.279 5.845-.302 1.257-.561 2.148-1.015 2.872-2.245.937-1.591 1.02-1.874 1.507-3.479.364-1.203.485-1.955.336-3.065-.121-.903-.799-1.665-1.818-2.129-.578-.262-1.053-.29-4.288-.29z"/><path d="M196.479.026L90.66.409c-3.539-.014-5.296.803-8.426 2.793L16.389 44.97c-19.504 15.338-2.682 31.012 13.729 29.604l21.12.064c.236 2.222 2.747 3.981 5.792 3.981 3.029 0 5.53-1.741 5.788-3.946l12.968.04c.227 2.228 2.742 3.994 5.793 3.994 3.036 0 5.54-1.748 5.79-3.959l69.044.209c.379 2.111 2.82 3.75 5.758 3.75 2.922 0 5.353-1.621 5.753-3.714l14.441.044c.425 2.073 2.842 3.67 5.744 3.67 2.886 0 5.292-1.58 5.737-3.636l49.076.149 13.776-7.522-227.044-.537c-5.397-.151-9.115-1.096-11.485-2.486H91.66v-1.767H16.025c-2.9-3.506-.475-8.377 4.288-11.46l8.204-5.181h30.976V44.5H31.315l6.625-4.184h10.396V38.55h-7.599l43.021-27.165c5.628-3.52 6.542-3.268 10.466-3.319l95.814-.147 10.069-5.829h207.719V0H196.48v.026h-.001zM8.904 92.549h3.403v1.102c0 .332.085.617.252.852.17.236.432.352.787.352h.167c.331 0 .604-.098.822-.289.218-.191.328-.432.328-.717 0-.316-.122-.648-.368-.99-.246-.344-.648-.689-1.215-1.041l-1.773-1.154c-.605-.387-1.118-.818-1.543-1.293-.425-.477-.636-1.068-.636-1.775v-.453c0-.371.07-.758.211-1.16.142-.406.365-.766.673-1.082.731-.767 1.896-1.151 3.496-1.151 1.335 0 2.402.256 3.202.768.8.516 1.2 1.352 1.2 2.514V88.2h-3.247v-.699c0-.459-.083-.811-.248-1.057-.164-.248-.454-.369-.867-.369-.422 0-.721.092-.9.279-.176.184-.267.41-.267.678 0 .334.271.734.812 1.199.277.232.781.576 1.511 1.035.731.457 1.323.865 1.773 1.225.451.357.844.82 1.182 1.383.333.564.5 1.221.5 1.979-.025.533-.16 1.006-.409 1.422-.252.416-.583.766-1.001 1.053-.419.283-.901.496-1.446.641-.544.143-1.143.213-1.794.213h-.239c-.709 0-1.398-.123-2.075-.373-.677-.248-1.229-.609-1.653-1.086-.425-.475-.636-1.029-.636-1.666v-1.508h-.002zm10.167-3.283c0-.633.169-1.168.513-1.607.34-.441.805-.766 1.401-.977.591-.211 1.259-.316 1.996-.316.787 0 1.487.1 2.094.299.607.203 1.09.529 1.438.98.35.453.526 1.027.526 1.725v4.725c0 .709-.173 1.293-.523 1.756-.346.463-.822.801-1.429 1.012-.604.211-1.294.316-2.068.316-.573 0-1.099-.061-1.584-.186-.482-.125-.904-.314-1.263-.572-.358-.254-.633-.568-.822-.938-.186-.371-.28-.801-.28-1.291v-4.926h.001zm3.246-.342v5.654c0 .443.246.666.741.666.491 0 .737-.223.737-.666v-5.621c0-.467-.246-.697-.737-.697-.495 0-.741.22-.741.664zm13.697 1.5h-3.246V89.16c0-.303-.047-.527-.142-.674-.098-.145-.284-.217-.561-.217-.516 0-.775.244-.775.729v5.58c0 .443.246.666.74.666.491 0 .737-.232.737-.699v-1.996h3.246v1.672c0 .566-.16 1.074-.484 1.525-.321.453-.759.805-1.313 1.057s-1.156.375-1.808.375h-.721c-.588 0-1.168-.113-1.734-.34-.564-.229-1.024-.551-1.38-.963-.353-.414-.528-.891-.528-1.424v-5.279c0-.613.183-1.125.547-1.535.365-.408.844-.717 1.436-.924.59-.205 1.231-.322 1.927-.348.517 0 1.014.057 1.496.172.479.117.913.295 1.3.533.388.238.693.533.923.889.227.354.34.758.34 1.213v1.252zm1.269-6.446h3.246v1.905h-3.246v-1.905zm0 2.592h3.246v10.379h-3.246V86.57zm12.462 6.549v1.166c0 .604-.183 1.123-.544 1.564-.362.441-.844.775-1.441.996-.602.223-1.241.332-1.924.332-1.395 0-2.44-.297-3.136-.895-.614-.566-.922-1.199-.922-1.902v-5.227c0-.592.188-1.098.563-1.518.375-.42.863-.736 1.464-.949.604-.215 1.244-.322 1.921-.322 1.212 0 2.134.211 2.777.633.828.547 1.243 1.313 1.243 2.299v2.863h-4.723v2.354c0 .484.246.727.74.727.268 0 .459-.064.57-.193.11-.129.167-.328.167-.596v-1.332h3.245zm-3.246-2.863v-1.158c0-.199-.047-.387-.138-.563-.092-.176-.243-.266-.453-.266-.59 0-.885.221-.885.664v1.322h1.476v.001zm4.515-5.826h3.246v2.242h.813v2.033h-.813v5.676c0 .227.025.387.072.475.057.129.164.191.324.191h.454v2.131h-1.931c-.711 0-1.253-.164-1.621-.492-.362-.277-.544-.732-.544-1.361v-6.619h-.822v-2.033h.822V84.43zm4.704 5.406v-.975c0-.307.084-.613.254-.924.17-.311.413-.578.73-.805.318-.227.722-.41 1.213-.555.494-.145 1.042-.213 1.647-.213.91 0 1.627.094 2.15.281.522.186.928.471 1.218.852.362.492.544 1.125.544 1.902v7.549h-2.979v-.793h-.045c-.246.305-.579.555-.998.74-.419.188-.898.281-1.442.281-.35 0-.69-.053-1.017-.162-.325-.107-.602-.275-.832-.502-.226-.232-.39-.543-.487-.93-.101-.383-.157-.895-.177-1.529 0-.598.114-1.1.344-1.506.226-.406.513-.729.853-.967.343-.238.708-.434 1.099-.578.394-.15.725-.273.995-.375.535-.193.929-.406 1.178-.633s.375-.549.375-.969c0-.512-.259-.768-.774-.768-.283 0-.492.066-.621.201-.129.137-.192.279-.192.432v.943h-3.036v.003zm4.622 4.742v-2.822c-.142.078-.303.17-.485.273-.183.102-.347.211-.494.32-.149.111-.269.236-.36.371-.092.139-.139.293-.139.461v1.508c0 .244.067.424.202.547.135.121.302.184.501.184.251 0 .444-.082.576-.244.133-.16.199-.36.199-.598zm4.405-10.148h3.246v2.242h.813v2.033h-.813v5.676c0 .227.025.387.072.475.057.129.165.191.325.191h.453v2.131H66.91c-.711 0-1.253-.164-1.621-.492-.362-.277-.544-.732-.544-1.361v-6.619h-.822v-2.033h.822V84.43zm12.462 8.689v1.166c0 .604-.183 1.123-.544 1.564s-.844.775-1.441.996c-.602.223-1.241.332-1.924.332-1.395 0-2.44-.297-3.136-.895-.614-.566-.923-1.199-.923-1.902v-5.227c0-.592.189-1.098.563-1.518.376-.42.863-.736 1.464-.949.605-.215 1.245-.322 1.921-.322 1.212 0 2.135.211 2.777.633.828.547 1.244 1.313 1.244 2.299v2.863h-4.723v2.354c0 .484.246.727.74.727.268 0 .46-.064.57-.193.11-.129.167-.328.167-.596v-1.332h3.245zm-3.247-2.863v-1.158c0-.199-.047-.387-.138-.563-.091-.176-.243-.266-.453-.266-.589 0-.886.221-.886.664v1.322h1.477v.001zm4.462-.42v-.975c0-.307.085-.613.254-.924.17-.311.413-.578.73-.805.318-.227.721-.41 1.213-.555.494-.145 1.042-.213 1.646-.213.91 0 1.627.094 2.15.281.523.186.929.471 1.218.852.362.492.545 1.125.545 1.902v7.549h-2.979v-.793h-.047c-.246.305-.579.555-.998.74-.419.188-.898.281-1.443.281-.35 0-.689-.053-1.017-.162-.324-.107-.602-.275-.832-.502-.227-.232-.39-.543-.488-.93-.101-.383-.157-.895-.176-1.529 0-.598.113-1.1.344-1.506.226-.406.513-.729.853-.967.343-.238.709-.434 1.099-.578.394-.15.724-.273.995-.375.535-.193.929-.406 1.178-.633.249-.227.375-.549.375-.969 0-.512-.259-.768-.774-.768-.283 0-.491.066-.621.201-.129.137-.192.279-.192.432v.943h-3.033v.003zm4.622 4.742v-2.822c-.142.078-.303.17-.484.273-.183.102-.347.211-.495.32-.149.111-.269.236-.359.371-.092.139-.139.293-.139.461v1.508c0 .244.066.424.202.547.135.121.302.184.501.184.251 0 .444-.082.576-.244.133-.16.198-.36.198-.598zm9.371-10.6h3.8l2.815 7.642h.038v-7.642h3.337V96.95h-3.79l-2.797-8.025h-.038v8.025h-3.366V83.978h.001zm11.244 5.858v-.975c0-.307.084-.613.254-.924.17-.311.413-.578.73-.805.319-.227.722-.41 1.213-.555.494-.145 1.043-.213 1.647-.213.91 0 1.627.094 2.15.281.523.186.929.471 1.219.852.362.492.544 1.125.544 1.902v7.549h-2.979v-.793h-.047c-.246.305-.579.555-.998.74-.419.188-.898.281-1.442.281-.35 0-.69-.053-1.018-.162-.324-.107-.601-.275-.831-.502-.226-.232-.39-.543-.487-.93-.102-.383-.158-.895-.177-1.529 0-.598.114-1.1.344-1.506.227-.406.513-.729.853-.967.343-.238.709-.434 1.099-.578.394-.15.725-.273.996-.375.535-.193.929-.406 1.178-.633.248-.227.374-.549.374-.969 0-.512-.258-.768-.774-.768-.283 0-.491.066-.62.201-.13.137-.193.279-.193.432v.943h-3.035v.003zm4.622 4.742v-2.822c-.141.078-.302.17-.484.273-.183.102-.347.211-.494.32-.148.111-.269.236-.36.371-.091.139-.138.293-.138.461v1.508c0 .244.066.424.201.547.136.121.303.184.501.184.252 0 .444-.082.576-.244.132-.16.198-.36.198-.598zm4.405-10.148h3.246v2.242h.812v2.033h-.812v5.672c0 .229.025.387.072.477.057.127.164.189.324.189h.453v2.133h-1.93c-.712 0-1.253-.164-1.622-.492-.361-.279-.544-.732-.544-1.361v-6.617h-.822v-2.033h.822V84.43h.001zm1.014 12.951h2.195v1.256c0 .25-.102.42-.309.512-.205.092-.413.139-.623.139h-1.188c.202-.012.355-.025.466-.037.107-.018.202-.063.29-.137.084-.076.163-.197.23-.365H113.7v-1.368zm3.743-13.403h3.246v1.905h-3.246v-1.905zm0 2.592h3.246v10.379h-3.246V86.57zm4.493 2.696c0-.633.17-1.168.513-1.607.34-.441.806-.766 1.401-.977.592-.211 1.26-.316 1.996-.316.787 0 1.487.1 2.094.299.607.203 1.09.529 1.439.98.349.453.525 1.027.525 1.725v4.725c0 .709-.173 1.293-.523 1.756-.346.463-.822.801-1.429 1.012-.604.211-1.294.316-2.069.316-.573 0-1.098-.061-1.584-.186-.481-.125-.903-.314-1.263-.572-.359-.254-.633-.568-.822-.938-.186-.371-.28-.801-.28-1.291v-4.926h.002zm3.246-.342v5.654c0 .443.246.666.74.666.491 0 .737-.223.737-.666v-5.621c0-.467-.246-.697-.737-.697-.494 0-.74.22-.74.664zm13.697 8.025h-3.246v-7.223c0-.238-.054-.441-.16-.609-.107-.17-.29-.256-.542-.256-.516 0-.774.326-.774.975v7.113h-3.246V86.57h3.136v1.158h.039c.299-.482.639-.828 1.013-1.041.375-.215.835-.322 1.383-.322.45 0 .856.092 1.221.273.369.18.655.432.863.748.211.316.314.652.314 1.008v8.555h-.001zm1.216-7.113v-.975c0-.307.084-.613.254-.924s.413-.578.73-.805c.318-.227.721-.41 1.212-.555.495-.145 1.042-.213 1.647-.213.91 0 1.627.094 2.15.281.523.186.928.471 1.218.852.362.492.545 1.125.545 1.902v7.549h-2.979v-.793h-.047c-.246.305-.579.555-.998.74-.42.188-.898.281-1.443.281-.35 0-.69-.053-1.017-.162-.324-.107-.601-.275-.832-.502-.226-.232-.39-.543-.487-.93-.101-.383-.158-.895-.176-1.529 0-.598.113-1.1.343-1.506.226-.406.513-.729.853-.967.343-.238.709-.434 1.099-.578.394-.15.724-.273.995-.375.535-.193.929-.406 1.177-.633.249-.227.375-.549.375-.969 0-.512-.258-.768-.774-.768-.283 0-.491.066-.62.201-.13.137-.193.279-.193.432v.943h-3.032v.003zm4.621 4.742v-2.822c-.141.078-.303.17-.484.273-.183.102-.347.211-.495.32-.148.111-.268.236-.359.371-.091.139-.139.293-.139.461v1.508c0 .244.067.424.201.547.136.121.303.184.501.184.252 0 .444-.082.576-.244.133-.16.199-.36.199-.598zm4.405-10.6h3.246V96.95h-3.246V83.978zm4.705 5.858v-.975c0-.307.084-.613.254-.924s.413-.578.73-.805c.318-.227.721-.41 1.212-.555.495-.145 1.042-.213 1.647-.213.91 0 1.627.094 2.15.281.523.186.928.471 1.218.852.362.492.545 1.125.545 1.902v7.549h-2.979v-.793h-.047c-.246.305-.579.555-.997.74-.42.188-.898.281-1.443.281-.35 0-.689-.053-1.017-.162-.324-.107-.602-.275-.832-.502-.226-.232-.39-.543-.487-.93-.101-.383-.157-.895-.177-1.529 0-.598.114-1.1.344-1.506.227-.406.513-.729.853-.967.343-.238.709-.434 1.099-.578.394-.15.724-.273.995-.375.535-.193.929-.406 1.177-.633.249-.227.375-.549.375-.969 0-.512-.259-.768-.775-.768-.283 0-.491.066-.62.201-.13.137-.193.279-.193.432v.943h-3.032v.003zm4.622 4.742v-2.822c-.142.078-.303.17-.485.273-.183.102-.347.211-.495.32-.148.111-.268.236-.359.371-.091.139-.139.293-.139.461v1.508c0 .244.067.424.202.547.135.121.303.184.501.184.252 0 .444-.082.576-.244.132-.16.199-.36.199-.598zm-3.464-11.206h1.441c0 .343.139.595.416.751.277.16.623.238 1.042.238.431 0 .749-.078.96-.238.208-.157.34-.408.396-.751h1.439c0 .481-.12.887-.356 1.222-.236.334-.561.586-.973.76-.413.17-.875.264-1.393.279-.012-.021-.027-.031-.043-.035-.013-.002-.026-.004-.032-.004-.548 0-1.033-.063-1.452-.189s-.759-.355-1.021-.684c-.258-.33-.402-.779-.424-1.349zm17.522.606h3.246V96.95h-3.246v-1.04h-.038c-.147.344-.415.641-.803.893-.387.252-.768.375-1.143.375h-.645c-.18 0-.419-.074-.718-.229-.302-.154-.567-.387-.793-.699-.388-.527-.583-1.129-.583-1.799V88.83c0-.633.18-1.205.536-1.709.356-.506.888-.756 1.596-.756h.497c.418 0 .81.092 1.179.273.364.18.657.467.877.859h.038v-3.519zm0 9.379v-3.57c0-.404-.066-.73-.196-.969-.128-.24-.333-.361-.617-.361-.16 0-.312.059-.453.176-.141.115-.211.256-.211.428v5.357c0 .42.208.629.627.629.246 0 .435-.082.561-.242.125-.162.204-.354.24-.578.034-.225.049-.514.049-.87zm12.22-.238v1.166c0 .604-.182 1.123-.544 1.564-.361.441-.844.775-1.441.996-.602.223-1.241.332-1.924.332-1.395 0-2.44-.297-3.136-.895-.614-.566-.923-1.199-.923-1.902v-5.227c0-.592.189-1.098.563-1.518.375-.42.863-.736 1.464-.949.605-.215 1.244-.322 1.921-.322 1.212 0 2.135.211 2.777.633.828.547 1.243 1.313 1.243 2.299v2.863h-4.723v2.354c0 .484.246.727.74.727.268 0 .459-.064.57-.193s.167-.328.167-.596v-1.332h3.246zm-3.246-2.863v-1.158c0-.199-.047-.387-.138-.563-.092-.176-.243-.266-.454-.266-.589 0-.885.221-.885.664v1.322h1.477v.001zm8.936-6.278h7.969v2.499h-2.27V96.95h-3.457V86.477h-2.242v-2.499zm7.361 2.592h3.099v1.824h.037c.22-.477.406-.84.554-1.086.145-.248.366-.469.659-.66.293-.189.661-.283 1.111-.283v3.393h-.85c-.375 0-.695.092-.964.273-.268.182-.4.5-.4.955v5.963h-3.246V86.57zm6.01 3.266v-.975c0-.307.085-.613.255-.924s.413-.578.73-.805c.318-.227.721-.41 1.213-.555.494-.145 1.042-.213 1.646-.213.91 0 1.628.094 2.15.281.522.186.929.471 1.219.852.361.492.545 1.125.545 1.902v7.549h-2.979v-.793h-.047c-.246.305-.579.555-.998.74-.419.188-.897.281-1.442.281-.35 0-.689-.053-1.017-.162-.324-.107-.602-.275-.832-.502-.226-.232-.39-.543-.486-.93-.102-.383-.158-.895-.178-1.529 0-.598.113-1.1.344-1.506.227-.406.514-.729.854-.967.343-.238.708-.434 1.099-.578.394-.15.724-.273.995-.375.535-.193.929-.406 1.178-.633s.374-.549.374-.969c0-.512-.258-.768-.774-.768-.283 0-.491.066-.62.201-.129.137-.192.279-.192.432v.943h-3.037v.003zm4.622 4.742v-2.822c-.141.078-.303.17-.484.273-.183.102-.347.211-.494.32-.148.111-.268.236-.359.371-.092.139-.139.293-.139.461v1.508c0 .244.066.424.201.547.136.121.303.184.501.184.252 0 .444-.082.576-.244.133-.16.198-.36.198-.598zm12.11 2.371h-3.246v-7.223c0-.238-.054-.441-.16-.609-.106-.17-.29-.256-.542-.256-.517 0-.774.326-.774.975v7.113h-3.246V86.57h3.136v1.158h.038c.299-.482.639-.828 1.014-1.041.375-.215.834-.322 1.383-.322.449 0 .855.092 1.222.273.368.18.654.432.862.748.212.316.314.652.314 1.008v8.555h-.001zm8.085-7.318h-2.912v-.5c0-.576-.23-.867-.693-.867-.163 0-.306.031-.418.088-.113.059-.196.133-.246.227-.047.092-.073.189-.073.289 0 .223.052.412.151.566.104.156.221.287.354.391.132.102.428.316.888.639l1.549 1.035c.343.227.63.49.856.785.229.295.394.588.501.877.104.287.154.543.154.771v.387c0 .998-.463 1.777-1.392 2.338-.573.35-1.386.521-2.443.521-.696 0-1.298-.08-1.804-.244-.507-.164-.91-.393-1.213-.684-.208-.227-.368-.49-.479-.789s-.167-.594-.167-.887v-.894h2.935v.736c0 .242.075.439.229.596.154.154.371.229.655.229.211 0 .372-.066.485-.205.112-.139.17-.311.17-.521 0-.234-.101-.48-.306-.734-.202-.256-.481-.486-.838-.695-.604-.357-1.117-.688-1.543-.984-.422-.299-.809-.672-1.155-1.115-.349-.443-.523-.93-.523-1.459v-.404c0-.422.104-.809.309-1.154.209-.35.479-.639.813-.869s.724-.408 1.168-.539c.44-.129.903-.193 1.382-.193.725 0 1.323.078 1.795.234.47.154.838.363 1.103.623.264.26.447.543.551.855.106.309.157.639.157.986v.564zm4.059-3.061v.928l.038.033c.258-.455.589-.764.991-.926.403-.16.86-.24 1.37-.24.528 0 .966.111 1.313.33.35.219.604.521.765.914.164.389.246.832.246 1.314v5.201c0 .904-.204 1.641-.614 2.207-.409.564-1.004.846-1.784.846-.518 0-.98-.113-1.392-.34-.413-.229-.712-.537-.895-.928h-.038v2.805h-3.246V86.57h3.246zm0 3.084v3.996c0 .555.082.928.248 1.113.167.188.379.283.637.283.154 0 .293-.055.412-.16.12-.105.18-.273.18-.506v-5.289c0-.227-.069-.389-.208-.488-.138-.098-.276-.146-.419-.146-.309 0-.525.123-.654.373s-.196.522-.196.824zm5.727-.388c0-.633.171-1.168.514-1.607.34-.441.806-.766 1.401-.977.592-.211 1.26-.316 1.996-.316.787 0 1.486.1 2.094.299.607.203 1.09.529 1.438.98.351.453.526 1.027.526 1.725v4.725c0 .709-.173 1.293-.522 1.756-.346.463-.822.801-1.43 1.012-.604.211-1.294.316-2.068.316-.573 0-1.099-.061-1.584-.186-.481-.125-.903-.314-1.263-.572-.359-.254-.634-.568-.821-.938-.187-.371-.281-.801-.281-1.291v-4.926zm3.246-.342v5.654c0 .443.246.666.74.666.491 0 .737-.223.737-.666v-5.621c0-.467-.246-.697-.737-.697-.494 0-.74.22-.74.664zm5.727-2.354h3.099v1.824h.038c.22-.477.405-.84.554-1.086.145-.248.365-.469.658-.66.293-.189.661-.283 1.111-.283v3.393h-.85c-.375 0-.695.092-.964.273-.268.182-.4.5-.4.955v5.963h-3.246V86.57zm6.065-2.14h3.246v2.242h.813v2.033h-.813v5.676c0 .227.024.387.072.475.058.129.164.191.324.191h.453v2.131h-1.93c-.712 0-1.254-.164-1.622-.492-.361-.277-.544-.732-.544-1.361v-6.619h-.822v-2.033h.822V84.43h.001zm9.722-.452h7.268v2.499h-3.791v2.584h3.378v2.498h-3.378v5.391h-3.477V83.978zm15.829 9.141v1.166c0 .604-.183 1.123-.544 1.564-.362.441-.845.775-1.442.996-.602.223-1.241.332-1.924.332-1.395 0-2.44-.297-3.136-.895-.614-.566-.923-1.199-.923-1.902v-5.227c0-.592.188-1.098.563-1.518s.862-.736 1.464-.949c.604-.215 1.244-.322 1.921-.322 1.212 0 2.135.211 2.777.633.827.547 1.243 1.313 1.243 2.299v2.863h-4.723v2.354c0 .484.245.727.739.727.269 0 .461-.064.57-.193.11-.129.167-.328.167-.596v-1.332h3.248zm-3.247-2.863v-1.158c0-.199-.047-.387-.139-.563-.091-.176-.242-.266-.453-.266-.589 0-.885.221-.885.664v1.322h1.477v.001zm4.251-3.686h3.098v1.824h.038c.221-.477.405-.84.555-1.086.145-.248.365-.469.658-.66.292-.189.661-.283 1.111-.283v3.393h-.851c-.375 0-.695.092-.964.273-.267.182-.399.5-.399.955v5.963h-3.246V86.57zm5.799 2.696c0-.633.171-1.168.514-1.607.34-.441.806-.766 1.401-.977.592-.211 1.259-.316 1.995-.316.788 0 1.487.1 2.095.299.607.203 1.09.529 1.438.98.35.453.525 1.027.525 1.725v4.725c0 .709-.173 1.293-.522 1.756-.346.463-.821.801-1.429 1.012-.604.211-1.294.316-2.068.316-.573 0-1.1-.061-1.584-.186-.482-.125-.904-.314-1.264-.572-.358-.254-.633-.568-.821-.938-.186-.371-.28-.801-.28-1.291v-4.926zm3.246-.342v5.654c0 .443.246.666.74.666.491 0 .737-.223.737-.666v-5.621c0-.467-.246-.697-.737-.697-.494 0-.74.22-.74.664zM294.126 86.57h3.328l.775 6.645h.037l.813-6.678 3.228.033-2.214 10.379h-3.791l-2.176-10.379zm8.788-2.592h3.246v1.905h-3.246v-1.905zm0 2.592h3.246v10.379h-3.246V86.57zm4.704 3.266v-.975c0-.307.085-.613.255-.924s.412-.578.729-.805c.318-.227.722-.41 1.213-.555.494-.145 1.043-.213 1.647-.213.909 0 1.627.094 2.15.281.522.186.929.471 1.219.852.361.492.544 1.125.544 1.902v7.549h-2.979v-.793h-.047c-.246.305-.579.555-.998.74-.42.188-.898.281-1.442.281-.351 0-.69-.053-1.018-.162-.324-.107-.602-.275-.831-.502-.227-.232-.39-.543-.487-.93-.102-.383-.157-.895-.177-1.529 0-.598.113-1.1.344-1.506.226-.406.513-.729.853-.967.344-.238.709-.434 1.099-.578.395-.15.725-.273.996-.375.534-.193.928-.406 1.177-.633s.375-.549.375-.969c0-.512-.259-.768-.774-.768-.283 0-.491.066-.62.201-.13.137-.193.279-.193.432v.943h-3.035v.003zm4.622 4.742v-2.822c-.142.078-.303.17-.484.273-.183.102-.347.211-.494.32-.148.111-.269.236-.36.371-.092.139-.139.293-.139.461v1.508c0 .244.067.424.202.547.135.121.302.184.501.184.251 0 .443-.082.576-.244.132-.16.198-.36.198-.598zm4.141-8.008h3.098v1.824h.037c.221-.477.406-.84.555-1.086.146-.248.366-.469.659-.66.292-.189.66-.283 1.11-.283v3.393h-.85c-.375 0-.695.092-.964.273-.268.182-.4.5-.4.955v5.963h-3.245V86.57zm15.718-2.592h3.245V96.95h-3.245v-1.04h-.039c-.146.344-.414.641-.802.893s-.769.375-1.144.375h-.645c-.18 0-.42-.074-.719-.229-.302-.154-.567-.387-.793-.699-.388-.527-.583-1.129-.583-1.799V88.83c0-.633.18-1.205.535-1.709.356-.506.889-.756 1.597-.756h.497c.419 0 .81.092 1.179.273.364.18.657.467.877.859h.039v-3.519h.001zm0 9.379v-3.57c0-.404-.066-.73-.196-.969-.128-.24-.333-.361-.617-.361-.16 0-.312.059-.452.176-.143.115-.212.256-.212.428v5.357c0 .42.208.629.627.629.246 0 .435-.082.561-.242.126-.162.204-.354.239-.578.033-.225.05-.514.05-.87zm12.218-.238v1.166c0 .604-.182 1.123-.544 1.564s-.844.775-1.442.996c-.601.223-1.241.332-1.924.332-1.395 0-2.439-.297-3.136-.895-.614-.566-.923-1.199-.923-1.902v-5.227c0-.592.188-1.098.563-1.518s.862-.736 1.464-.949c.605-.215 1.244-.322 1.921-.322 1.212 0 2.135.211 2.777.633.828.547 1.243 1.313 1.243 2.299v2.863h-4.723v2.354c0 .484.246.727.74.727.268 0 .46-.064.57-.193.109-.129.167-.328.167-.596v-1.332h3.247zm-3.245-2.863v-1.158c0-.199-.048-.387-.139-.563-.092-.176-.243-.266-.454-.266-.589 0-.885.221-.885.664v1.322h1.478v.001zm14.944 1.531h3.514v1.895c0 .412-.089.822-.269 1.229-.179.406-.452.785-.82 1.133-.369.346-.828.623-1.379.826-.552.207-1.182.309-1.896.309h-.268c-.8 0-1.533-.143-2.201-.432-.667-.287-1.189-.703-1.571-1.254-.38-.547-.572-1.201-.572-1.969v-6.287c0-.561.147-1.107.443-1.641.293-.535.772-.977 1.431-1.326.657-.349 1.482-.522 2.471-.522h.268c.665 0 1.264.089 1.795.27.532.18.989.426 1.37.736s.677.682.885 1.107c.211.424.314.883.314 1.375v1.467h-3.514v-1.744c0-.592-.359-.887-1.08-.887-.255 0-.469.082-.642.24-.178.164-.266.377-.266.646v6.891c0 .672.353 1.006 1.056 1.006.62-.037.932-.373.932-1.008v-2.06h-.001zm4.766-1.951v-.975c0-.307.085-.613.255-.924s.413-.578.73-.805c.318-.227.722-.41 1.212-.555.495-.145 1.043-.213 1.647-.213.91 0 1.628.094 2.15.281.522.186.929.471 1.219.852.361.492.544 1.125.544 1.902v7.549h-2.978v-.793h-.048c-.245.305-.579.555-.997.74-.42.188-.898.281-1.443.281-.35 0-.689-.053-1.017-.162-.324-.107-.602-.275-.831-.502-.227-.232-.391-.543-.488-.93-.102-.383-.157-.895-.177-1.529 0-.598.114-1.1.344-1.506.227-.406.513-.729.854-.967.343-.238.708-.434 1.099-.578.394-.15.724-.273.995-.375.535-.193.929-.406 1.178-.633s.374-.549.374-.969c0-.512-.258-.768-.774-.768-.283 0-.491.066-.62.201-.13.137-.192.279-.192.432v.943h-3.036v.003zm4.622 4.742v-2.822c-.142.078-.303.17-.484.273-.183.102-.347.211-.494.32-.148.111-.269.236-.36.371-.091.139-.138.293-.138.461v1.508c0 .244.066.424.201.547.136.121.303.184.501.184.252 0 .444-.082.576-.244.133-.16.198-.36.198-.598zm-3.463-11.206h1.441c0 .343.139.595.416.751.277.16.623.238 1.043.238.431 0 .748-.078.96-.238.207-.157.34-.408.396-.751h1.439c0 .481-.12.887-.356 1.222-.236.334-.561.586-.973.76-.413.17-.876.264-1.393.279-.012-.021-.027-.031-.043-.035-.013-.002-.026-.004-.031-.004-.549 0-1.033-.063-1.452-.189s-.759-.355-1.021-.684c-.26-.33-.404-.779-.426-1.349zm7.869.606h3.246V96.95h-3.246V83.978zm4.704 5.858v-.975c0-.307.084-.613.255-.924.17-.311.412-.578.73-.805.317-.227.721-.41 1.212-.555.495-.145 1.043-.213 1.647-.213.91 0 1.627.094 2.15.281.522.186.928.471 1.218.852.362.492.545 1.125.545 1.902v7.549h-2.979v-.793h-.047c-.246.305-.579.555-.998.74-.42.188-.898.281-1.442.281-.35 0-.689-.053-1.017-.162-.325-.107-.602-.275-.832-.502-.227-.232-.391-.543-.487-.93-.102-.383-.157-.895-.177-1.529 0-.598.113-1.1.344-1.506.226-.406.513-.729.853-.967.344-.238.709-.434 1.099-.578.395-.15.725-.273.996-.375.534-.193.929-.406 1.177-.633.249-.227.375-.549.375-.969 0-.512-.259-.768-.774-.768-.283 0-.491.066-.62.201-.13.137-.193.279-.193.432v.943h-3.035v.003zm4.622 4.742v-2.822c-.142.078-.303.17-.484.273-.184.102-.347.211-.495.32-.148.111-.268.236-.359.371-.091.139-.139.293-.139.461v1.508c0 .244.067.424.202.547.136.121.303.184.501.184.252 0 .444-.082.576-.244.131-.16.198-.36.198-.598zm-3.464-11.206h1.442c0 .343.139.595.416.751.276.16.622.238 1.042.238.432 0 .749-.078.96-.238.208-.157.34-.408.396-.751h1.439c0 .481-.12.887-.355 1.222-.236.334-.562.586-.974.76-.412.17-.875.264-1.392.279-.012-.021-.028-.031-.043-.035-.014-.002-.026-.004-.032-.004-.548 0-1.033-.063-1.452-.189s-.759-.355-1.02-.684c-.26-.33-.405-.779-.427-1.349zm7.868 1.058h3.246v2.242h.813v2.033h-.813v5.676c0 .227.025.387.072.475.058.129.164.191.324.191h.454v2.131h-1.931c-.711 0-1.253-.164-1.621-.492-.362-.277-.545-.732-.545-1.361v-6.619h-.821v-2.033h.821V84.43h.001zm4.493 4.836c0-.633.17-1.168.514-1.607.34-.441.806-.766 1.401-.977.591-.211 1.259-.316 1.996-.316.786 0 1.486.1 2.094.299.607.203 1.09.529 1.438.98.351.453.526 1.027.526 1.725v4.725c0 .709-.174 1.293-.523 1.756-.346.463-.821.801-1.429 1.012-.604.211-1.294.316-2.068.316-.573 0-1.1-.061-1.584-.186-.481-.125-.903-.314-1.263-.572-.359-.254-.634-.568-.822-.938-.186-.371-.28-.801-.28-1.291v-4.926zm3.246-.342v5.654c0 .443.246.666.74.666.491 0 .737-.223.737-.666v-5.621c0-.467-.246-.697-.737-.697-.494 0-.74.22-.74.664zm5.728-2.354h3.099v1.824h.038c.22-.477.405-.84.554-1.086.145-.248.365-.469.658-.66.293-.189.661-.283 1.111-.283v3.393h-.85c-.375 0-.696.092-.965.273-.267.182-.399.5-.399.955v5.963h-3.246V86.57zm6.064-2.592h3.245v1.905h-3.245v-1.905zm0 2.592h3.245v10.379h-3.245V86.57zM23.821 145.145h15.323v7.619c0 1.654-.385 3.309-1.167 4.941-.782 1.633-1.978 3.158-3.583 4.551-1.606 1.393-3.611 2.504-6.014 3.332-2.402.826-5.148 1.24-8.265 1.24h-1.167c-3.488 0-6.686-.578-9.598-1.742-2.91-1.154-5.19-2.83-6.851-5.039C.837 157.848 0 155.213 0 152.121v-25.285c0-2.256.645-4.455 1.936-6.598 1.277-2.156 3.364-3.93 6.233-5.334s6.467-2.102 10.778-2.102h1.167c2.897 0 5.506.359 7.826 1.09 2.321.717 4.312 1.709 5.973 2.959 1.661 1.252 2.952 2.744 3.858 4.453.92 1.709 1.373 3.549 1.373 5.531v5.898H23.821v-7.01c0-2.385-1.565-3.572-4.709-3.572-1.112 0-2.045.328-2.801.971-.769.652-1.154 1.514-1.154 2.602v27.715c0 2.699 1.538 4.049 4.6 4.049 2.705-.152 4.064-1.502 4.064-4.061v-8.282zm22.078-31.416h31.689v10.047H61.057v10.396H75.79v10.047H61.057v21.684H45.899v-52.174zm36.48 0h18.384c3.721 0 6.852.152 9.364.457 2.526.316 4.531.914 6.041 1.807 1.071.631 2.019 1.361 2.828 2.166.824.807 1.47 1.861 1.95 3.156.48 1.297.728 2.896.728 4.813v.447c0 2.1-.234 3.885-.687 5.354-.453 1.459-1.331 2.734-2.623 3.822-1.304 1.078-3.211 1.98-5.738 2.709 1.661.34 3.157.871 4.49 1.59 1.318.73 2.361 1.633 3.116 2.732.741 1.1 1.126 2.33 1.126 3.713v12.158c0 3.832.521 6.248 1.565 7.25h-15.075c-.453-.359-.838-1.164-1.168-2.428-.315-1.252-.48-2.732-.48-4.43v-11.092c0-1.383-.398-2.504-1.195-3.363-.783-.861-2.045-1.297-3.762-1.297h-3.707v22.609H82.379v-52.173zm15.158 8.806v11.854h4.792c1.401 0 2.444-.49 3.144-1.459.701-.979 1.043-2.078 1.043-3.309v-2.547c0-1.459-.493-2.58-1.482-3.363-1.002-.785-2.417-1.176-4.271-1.176h-3.226zm75.158 22.61h15.324v7.619c0 1.654-.385 3.309-1.168 4.941-.782 1.633-1.978 3.158-3.583 4.551-1.606 1.393-3.611 2.504-6.015 3.332-2.402.826-5.148 1.24-8.265 1.24h-1.167c-3.487 0-6.687-.578-9.598-1.742-2.91-1.154-5.19-2.83-6.851-5.039-1.661-2.199-2.498-4.834-2.498-7.926v-25.285c0-2.256.645-4.455 1.936-6.598 1.277-2.156 3.364-3.93 6.233-5.334s6.467-2.102 10.778-2.102h1.167c2.897 0 5.506.359 7.826 1.09 2.32.717 4.312 1.709 5.973 2.959 1.661 1.252 2.952 2.744 3.858 4.453.92 1.709 1.374 3.549 1.374 5.531v5.898h-15.324v-7.01c0-2.385-1.564-3.572-4.709-3.572-1.111 0-2.045.328-2.8.971-.769.652-1.153 1.514-1.153 2.602v27.715c0 2.699 1.538 4.049 4.6 4.049 2.705-.152 4.063-1.502 4.063-4.061v-8.282h-.001zm22.847-7.85v-3.918c0-1.24.37-2.471 1.111-3.723.742-1.24 1.799-2.32 3.187-3.232 1.386-.916 3.144-1.656 5.286-2.232 2.155-.578 4.544-.859 7.181-.859 3.968 0 7.098.381 9.377 1.131 2.279.752 4.051 1.895 5.313 3.43 1.579 1.98 2.376 4.527 2.376 7.652v30.359h-12.989v-3.189h-.206c-1.071 1.23-2.525 2.232-4.352 2.982-1.826.752-3.913 1.133-6.289 1.133-1.523 0-3.006-.219-4.435-.654-1.414-.436-2.623-1.109-3.624-2.023-.988-.938-1.703-2.178-2.129-3.734-.439-1.545-.686-3.604-.769-6.15 0-2.406.495-4.43 1.497-6.063.989-1.633 2.238-2.928 3.721-3.887 1.497-.957 3.09-1.742 4.792-2.33 1.717-.598 3.158-1.1 4.339-1.5 2.335-.785 4.05-1.635 5.135-2.549s1.634-2.209 1.634-3.896c0-2.057-1.125-3.092-3.377-3.092-1.235 0-2.142.271-2.705.816-.563.545-.838 1.121-.838 1.73v3.799h-13.236v-.001zm20.155 19.072v-11.354c-.617.314-1.317.686-2.114 1.1-.796.412-1.51.848-2.155 1.295-.646.445-1.167.947-1.564 1.492-.399.555-.604 1.174-.604 1.85v6.063c0 .98.288 1.709.879 2.199.59.49 1.317.74 2.183.74 1.098 0 1.936-.326 2.513-.979.574-.642.862-1.449.862-2.406zm-15.102-45.078h6.288c0 1.383.604 2.396 1.813 3.027 1.208.643 2.719.957 4.545.957 1.88 0 3.268-.314 4.188-.957.906-.631 1.482-1.645 1.73-3.027h6.273c0 1.939-.521 3.572-1.551 4.922-1.03 1.338-2.443 2.35-4.242 3.047-1.8.686-3.816 1.068-6.069 1.133-.055-.088-.124-.131-.191-.143-.056-.01-.11-.021-.138-.021-2.39 0-4.504-.25-6.329-.762-1.827-.512-3.31-1.426-4.449-2.744-1.141-1.326-1.772-3.135-1.868-5.432zm36.37 2.44h14.156v52.174h-14.156v-52.174zm22.573 23.566v-3.918c0-1.24.37-2.471 1.111-3.723.742-1.24 1.799-2.32 3.187-3.232 1.386-.916 3.144-1.656 5.285-2.232 2.155-.578 4.545-.859 7.181-.859 3.968 0 7.099.381 9.377 1.131 2.28.752 4.051 1.895 5.314 3.43 1.579 1.98 2.375 4.527 2.375 7.652v30.359H280.38v-3.189h-.206c-1.071 1.23-2.526 2.232-4.353 2.982-1.826.752-3.912 1.133-6.288 1.133-1.524 0-3.007-.219-4.436-.654-1.413-.436-2.622-1.109-3.624-2.023-.988-.938-1.703-2.178-2.128-3.734-.439-1.545-.687-3.604-.77-6.15 0-2.406.495-4.43 1.497-6.063.988-1.633 2.238-2.928 3.721-3.887 1.496-.957 3.09-1.742 4.791-2.33 1.717-.598 3.159-1.1 4.34-1.5 2.334-.785 4.05-1.635 5.135-2.549 1.084-.914 1.633-2.209 1.633-3.896 0-2.057-1.125-3.092-3.376-3.092-1.236 0-2.143.271-2.706.816-.563.545-.837 1.121-.837 1.73v3.799h-13.235v-.001zm20.154 19.072v-11.354c-.617.314-1.317.686-2.113 1.1-.797.412-1.511.848-2.156 1.295-.645.445-1.167.947-1.565 1.492-.398.555-.604 1.174-.604 1.85v6.063c0 .98.288 1.709.879 2.199.59.49 1.317.74 2.184.74 1.097 0 1.936-.326 2.512-.979.575-.642.863-1.449.863-2.406zm-15.101-45.078h6.287c0 1.383.604 2.396 1.813 3.027 1.208.643 2.72.957 4.545.957 1.881 0 3.268-.314 4.188-.957.906-.631 1.482-1.645 1.73-3.027h6.273c0 1.939-.521 3.572-1.55 4.922-1.031 1.338-2.444 2.35-4.243 3.047-1.799.686-3.817 1.068-6.069 1.133-.054-.088-.123-.131-.191-.143-.056-.01-.11-.021-.138-.021-2.39 0-4.503-.25-6.33-.762-1.825-.512-3.308-1.426-4.448-2.744-1.14-1.326-1.771-3.135-1.867-5.432zm36.37 4.258h14.155v9.023h3.543v8.176h-3.543v22.826c0 .914.11 1.557.316 1.916.248.512.715.762 1.414.762h1.977v8.578h-8.416c-3.103 0-5.464-.664-7.07-1.98-1.58-1.123-2.376-2.951-2.376-5.477v-26.625h-3.583v-8.176h3.583v-9.023zm21.652 19.451c0-2.547.741-4.701 2.238-6.465 1.481-1.775 3.515-3.082 6.109-3.93 2.581-.85 5.492-1.273 8.705-1.273 3.432 0 6.479.402 9.13 1.207 2.65.816 4.751 2.123 6.274 3.941 1.524 1.818 2.294 4.137 2.294 6.934v19.006c0 2.854-.756 5.203-2.279 7.064-1.511 1.861-3.584 3.223-6.233 4.072-2.637.848-5.643 1.273-9.021 1.273-2.5 0-4.793-.25-6.907-.752-2.1-.5-3.94-1.262-5.505-2.297-1.565-1.023-2.761-2.285-3.584-3.777-.81-1.49-1.222-3.221-1.222-5.191v-19.812h.001zm14.156-1.371v22.74c0 1.785 1.071 2.678 3.227 2.678 2.143 0 3.214-.893 3.214-2.678v-22.609c0-1.873-1.071-2.809-3.214-2.809-2.156 0-3.227.893-3.227 2.678zm27.035-9.471h13.51v7.336h.165c.961-1.914 1.771-3.373 2.416-4.363.632-1.002 1.593-1.883 2.869-2.656 1.277-.762 2.884-1.143 4.847-1.143v13.65h-3.706c-1.634 0-3.034.369-4.202 1.098-1.167.73-1.743 2.016-1.743 3.844v23.98h-14.155v-41.746h-.001zm28.502-10.427h14.156v7.664h-14.156v-7.664zm0 10.427h14.156v41.746h-14.156v-41.746z"/></g></svg>